<svg width="154" height="87" viewBox="0 0 154 87" fill="none" xmlns="http://www.w3.org/2000/svg">
<g clip-path="url(#clip0_3_4041)">
<path d="M154 11.433C144.867 15.0153 136.337 19.4601 127.086 22.1162C122.554 23.4198 117.973 24.4587 113.357 25.3702C111.763 25.6839 111.135 26.5317 111.042 28.0116C110.689 33.613 109.933 39.2193 111.022 44.8206C111.778 48.7019 113.22 52.0931 117.178 53.8524C120.602 55.3716 123.991 54.4601 126.213 51.4462C127.023 50.3485 126.458 49.6085 126.022 48.7852C124.035 45.0313 120.754 42.385 117.865 39.4055C117.546 39.0771 117.016 38.9203 116.977 38.244C118.743 38.1558 119.322 39.8367 120.523 40.5179C123.844 42.4046 126.228 45.247 128.504 48.2069C129.352 49.3096 129.657 50.5102 129.088 51.8333C127.631 55.2343 122.897 57.6748 119.184 56.9594C113.185 55.8028 109.497 51.8922 108.56 45.8399C107.657 39.9886 107.907 34.1619 108.947 28.3694C109.266 26.5807 108.83 26.1984 107.049 26.2817C100.815 26.566 100.947 26.5464 98.7006 32.2653C94.8305 42.1204 89.9352 51.4805 84.4856 60.5515C83.9853 61.3846 83.3035 62.1099 82.7296 62.9038C81.3366 64.8444 79.4874 65.2021 77.6872 63.8104C76.1961 62.6538 75.529 63.3007 74.8128 64.467C74.2585 65.3688 73.7582 66.3048 73.2628 67.2408C72.787 68.1425 71.9875 68.1474 71.1487 68.0494C70.3345 67.9514 70.0402 67.5348 69.7606 66.6821C68.603 63.1537 70.0255 59.7527 70.0745 56.2978C70.1186 53.3966 70.5552 50.5053 70.4031 47.4277C68.1664 51.0493 65.9248 54.6708 63.6881 58.2972C61.8094 61.3454 59.9161 64.3837 58.0816 67.4564C57.5567 68.3336 56.8847 69.0197 56.0214 69.4852C54.5695 70.2693 53.3678 69.544 53.1078 67.574C50.5719 71.3279 48.1929 74.969 45.6815 78.517C44.6073 80.0362 43.4056 81.5309 42.0174 82.756C39.4324 85.0446 37.1516 84.2458 36.4011 80.8987C35.8076 78.2524 36.5532 75.6845 37.387 73.2489C41.5907 60.9435 46.9225 49.1282 53.6081 37.9696C55.84 34.2452 58.5034 30.7756 61.0933 27.2765C61.5495 26.664 62.2558 25.331 63.4428 26.3454C64.3748 27.1442 63.5213 27.992 63.1632 28.7369C60.4507 34.3922 56.9436 39.6064 53.927 45.095C51.4646 49.5791 49.2917 54.3081 46.2309 58.356C43.7783 61.5953 42.4295 65.1825 40.9726 68.7747C39.5453 72.2982 38.1915 75.9197 38.265 79.8304C38.2798 80.59 38.0786 81.6632 39.0253 81.9768C39.7513 82.2169 40.3056 81.4917 40.8598 80.9869C45.4117 76.8361 48.3205 71.4749 51.6559 66.4224C53.4512 63.7075 55.2955 61.0268 57.1888 58.3805C57.7039 57.665 58.111 56.5967 59.4452 57.028C60.8628 57.4837 59.4452 58.6795 60.4164 59.4488C62.6041 55.8959 64.6495 52.2009 67.053 48.7509C71.6834 42.1057 74.3272 34.5245 77.6234 27.2471C79.6738 22.7092 82.8621 18.8328 85.1037 14.4027C85.6089 13.403 86.379 13.3295 87.2766 13.8195C88.5765 14.5252 87.4238 15.0986 87.1197 15.6475C82.9454 23.1748 78.8497 30.7364 75.5044 38.6802C73.3217 43.865 72.684 49.3537 72.2818 54.8766C72.0316 58.258 71.3155 61.6296 71.8551 65.5746C72.7183 64.2171 73.3707 63.2664 73.9495 62.2716C74.9649 60.5368 76.5737 60.081 78.0943 61.0758C79.9975 62.3206 80.9 61.4091 81.8565 60.0222C86.0111 53.9847 89.4888 47.5551 92.5496 40.9149C94.7078 36.2397 97.1359 31.6626 98.5338 26.5807C96.6601 26.2572 94.9286 25.5907 93.2216 24.8361C92.5202 24.5273 92.1572 24.0275 92.4221 23.2973C92.6575 22.6504 93.3491 22.5671 93.8691 22.6896C95.2131 23.0032 96.5129 23.4933 97.852 23.8265C99.0979 24.1353 99.6669 23.8216 100.305 22.3809C103.498 15.1868 105.926 7.4978 112.057 1.99445C113.19 0.975127 114.554 -0.544053 116.035 0.191034C117.615 0.980028 116.943 3.00397 116.776 4.47904C116.408 7.72813 115.069 10.7371 114.196 13.8637C113.46 16.4953 112.69 19.1318 112.18 21.8124C111.782 23.9 113.627 22.9738 114.255 22.8219C118.831 21.6997 123.481 20.9156 128.018 19.6169C136.269 17.2549 144.102 13.6921 152.357 11.3791C152.843 11.2418 153.294 11.134 153.986 11.4281L154 11.433ZM114.343 3.22939C113.386 3.21469 113.092 3.87627 112.66 4.31732C108.471 8.56613 105.98 13.849 103.684 19.2298C101.492 24.3754 101.702 24.5812 107.422 23.9098C108.874 23.7383 109.673 23.2434 110.017 21.6703C111.032 17.0098 112.253 12.3984 113.99 7.93885C114.583 6.41477 114.583 4.83188 114.343 3.23429V3.22939Z" fill="white"/>
<path d="M4.45424e-05 82.4915C0.112861 78.9679 1.02521 75.6551 1.95717 72.411C3.79167 66.0255 5.92539 59.7283 8.85372 53.73C10.6735 50.0006 13.1702 46.7319 15.5492 43.3799C15.9219 42.8556 16.3732 42.194 16.9226 42.0225C21.9454 40.4396 24.0644 35.784 27.3116 32.334C28.8174 30.7364 30.2693 29.08 31.7065 27.4138C33.1977 25.6888 35.2774 25.3752 37.053 26.1446C38.9023 26.9434 38.5197 29.0506 38.1665 30.7315C36.7686 37.4208 33.6734 43.4338 30.4018 49.3292C24.1968 60.5124 17.3542 71.3034 9.87398 81.678C8.91749 83.006 7.8727 84.2361 6.64153 85.3338C5.30735 86.5197 4.05655 87.5145 2.0798 86.7011C0.0196649 85.8533 0.191343 84.0645 -0.00976562 82.4915H4.45424e-05ZM5.83219 82.4277C7.22523 81.5407 8.10324 80.7125 8.75562 79.7177C10.9923 76.3216 13.4694 73.1068 15.6424 69.6568C22.3231 59.0324 29.563 48.7363 34.1345 36.921C34.7378 35.3675 35.8464 33.9806 35.9543 32.2556C36.0475 30.7168 37.4553 28.5606 35.7679 27.7912C34.164 27.0561 32.8739 29.1486 31.7408 30.364C24.2655 38.396 17.884 47.2171 13.131 57.1261C9.36385 64.9866 6.09216 73.0382 5.83219 82.4327V82.4277ZM18.3647 43.8945C17.0599 44.115 16.697 44.9824 16.1819 45.6636C9.0254 55.1707 5.47902 66.2117 2.67332 77.5517C2.20733 79.4384 1.86398 81.3741 2.00132 83.3589C2.05037 84.0841 2.33977 84.6869 2.98724 84.8829C3.76224 85.1133 4.35576 84.5399 4.92475 84.0645C5.66051 83.452 5.2632 83.1873 4.75798 82.6091C4.36557 82.1582 4.41953 81.2075 4.47839 80.4969C4.73836 77.2674 4.9738 74.0184 5.81257 70.8771C8.38774 61.2621 12.7876 52.4754 18.3598 43.8896L18.3647 43.8945Z" fill="white"/>
<path d="M34.1447 68.5199C32.6928 71.2201 31.1967 73.4891 29.2249 75.4052C27.8269 76.7627 26.1543 76.748 24.4964 75.8757C22.7207 74.9396 22.5736 73.0382 23.015 71.6269C24.7318 66.148 27.9839 61.6101 32.4916 58.0228C32.9723 57.6406 33.6689 57.4838 34.2967 57.3613C34.7529 57.2682 35.3562 57.2976 35.5475 57.866C35.7486 58.459 35.2091 58.6501 34.8167 58.9344C31.0888 61.6199 28.5676 65.3051 26.4584 69.2893C25.9728 70.2057 25.7766 71.2789 25.4676 72.2835C25.2321 73.0578 25.4479 73.837 26.0562 74.2536C26.8067 74.7632 27.4198 74.1654 27.9397 73.6116C29.2641 72.2002 31.0594 71.2544 32.0158 69.4804C32.3641 68.8384 32.9233 68.5836 34.1447 68.5199Z" fill="white"/>
<path d="M39.5648 54.4454C37.4213 56.9153 32.9185 57.3563 31.0839 55.6411C30.3629 54.9648 30.3874 54.166 31.0251 53.4702C31.7903 52.6371 33.2765 52.3969 33.5757 53.2153C34.5911 56.0038 36.6169 54.4552 38.2307 54.6169C38.5201 54.6463 38.8291 54.5483 39.5648 54.4454Z" fill="white"/>
</g>
<defs>
<clipPath id="clip0_3_4041">
<rect width="154" height="87" fill="white"/>
</clipPath>
</defs>
</svg>
